<svg xmlns="http://www.w3.org/2000/svg" xml:space="preserve" viewBox="0 0 1024 1024"><rect fill="#191934" width="1024" height="1024"/><path fill="#eabc4b" d="M823.56,312.11,986.06,149.6l-199.56,0c-77.58,0-133.22,39.92-154,105.71-4.88,15.45-6.2,35.82-4.92,56.76H428.11l162.5-162.5-197.15,0A162.47,162.47,0,0,0,231,312.1h0v0h-1.2A162.47,162.47,0,0,0,67.4,474.61H231V597.07c0,162.27,131.73,293.72,294,293.39H823.58V312.11M600.34,596.41a92.65,92.65,0,0,1,0-131l131,131A92.65,92.65,0,0,1,600.34,596.41Z"/></svg>
