<svg xmlns="http://www.w3.org/2000/svg" fill="none" viewBox="0 0 48 48"><circle cx="24" cy="24" r="24" fill="#07070B"/><path fill="#fff" d="M32.08 12.06c-1.38 0-2.7.55-3.68 1.54a5.3 5.3 0 0 0-1.53 3.72H20.6l5.2-5.26h-6.34c-1.38 0-2.7.55-3.68 1.54a5.3 5.3 0 0 0-1.52 3.72h-.06c-1.38 0-2.7.55-3.68 1.54A5.3 5.3 0 0 0 9 22.58h5.26v3.93A9.45 9.45 0 0 0 23.64 36h9.56l.01-18.74 5.2-5.26-6.33.06Zm-5.45 13.9a2 2 0 0 1-.43-2.18c.1-.25.25-.47.43-.66l2.81 2.84a1.99 1.99 0 0 1-2.16.44c-.25-.1-.46-.25-.65-.44Z"/></svg>
